<svg xmlns="http://www.w3.org/2000/svg" width="960" height="600" viewBox="0 0 960 600" fill="none">
  <rect width="960" height="600" rx="28" fill="#F7F8FA"/>
  <rect x="48" y="52" width="864" height="496" rx="26" fill="white" stroke="#E5E8EE"/>
  <rect x="82" y="88" width="796" height="56" rx="18" fill="#12314F"/>
  <circle cx="112" cy="116" r="7" fill="white" opacity=".9"/>
  <circle cx="134" cy="116" r="7" fill="white" opacity=".55"/>
  <circle cx="156" cy="116" r="7" fill="white" opacity=".35"/>
  <rect x="196" y="104" width="230" height="24" rx="8" fill="white" opacity=".92"/>
  <g transform="translate(82 176)">
    <rect width="318" height="282" rx="22" fill="#F9FAFB" stroke="#E5E8EE"/>
    <rect x="26" y="28" width="156" height="18" rx="8" fill="#12314F"/>
    <rect x="26" y="61" width="214" height="12" rx="6" fill="#CBD5E1"/>
    <rect x="26" y="108" width="266" height="22" rx="11" fill="#EAF0F6"/>
    <rect x="26" y="108" width="190" height="22" rx="11" fill="#315F86"/>
    <rect x="26" y="156" width="124" height="82" rx="18" fill="#FFF7ED" stroke="#FDBA74"/>
    <rect x="172" y="156" width="120" height="82" rx="18" fill="#EEF8F4" stroke="#A7DBC5"/>
    <text x="57" y="208" fill="#9A3412" font-family="Arial" font-size="34" font-weight="700">70%</text>
    <text x="196" y="208" fill="#186245" font-family="Arial" font-size="28" font-weight="700">MRO</text>
  </g>
  <g transform="translate(430 176)">
    <rect width="448" height="282" rx="22" fill="#F9FAFB" stroke="#E5E8EE"/>
    <path d="M42 206 C92 132 134 128 186 162 C247 202 283 98 345 124 C382 139 400 110 422 86" stroke="#12314F" stroke-width="6" fill="none" stroke-linecap="round"/>
    <circle cx="422" cy="86" r="10" fill="#12314F"/>
    <line x1="42" y1="226" x2="422" y2="226" stroke="#D6DDE7" stroke-width="2"/>
    <line x1="42" y1="66" x2="42" y2="226" stroke="#D6DDE7" stroke-width="2"/>
    <rect x="42" y="32" width="142" height="18" rx="8" fill="#12314F"/>
    <rect x="42" y="254" width="104" height="12" rx="6" fill="#CBD5E1"/>
    <rect x="166" y="254" width="104" height="12" rx="6" fill="#CBD5E1"/>
    <rect x="290" y="254" width="104" height="12" rx="6" fill="#CBD5E1"/>
  </g>
  <g transform="translate(82 482)">
    <rect width="192" height="34" rx="17" fill="#EEF2F6"/>
    <rect x="222" width="192" height="34" rx="17" fill="#EEF2F6"/>
    <rect x="444" width="192" height="34" rx="17" fill="#EEF2F6"/>
  </g>
</svg>
