<svg xmlns="http://www.w3.org/2000/svg" viewBox="0 0 520 360" role="img" aria-label="Genopole">
<rect width="520" height="360" fill="none"/>
<g transform="translate(260 120)">
  <circle r="58" fill="none" stroke="#d9dde5" stroke-width="1"/>
  <g stroke-linecap="round" stroke-width="6">
    <g stroke="#0072bc"><line x1="0" y1="-94" x2="0" y2="-66"/><line x1="34" y1="-88" x2="24" y2="-62"/><line x1="64" y1="-69" x2="45" y2="-48"/><line x1="86" y1="-38" x2="59" y2="-26"/></g>
    <g stroke="#00a3e0" transform="rotate(45)"><line x1="0" y1="-94" x2="0" y2="-66"/><line x1="34" y1="-88" x2="24" y2="-62"/><line x1="64" y1="-69" x2="45" y2="-48"/></g>
    <g stroke="#e83e8c" transform="rotate(90)"><line x1="0" y1="-94" x2="0" y2="-66"/><line x1="34" y1="-88" x2="24" y2="-62"/><line x1="64" y1="-69" x2="45" y2="-48"/></g>
    <g stroke="#f5b400" transform="rotate(135)"><line x1="0" y1="-94" x2="0" y2="-66"/><line x1="34" y1="-88" x2="24" y2="-62"/></g>
    <g stroke="#79b82a" transform="rotate(180)"><line x1="0" y1="-94" x2="0" y2="-66"/><line x1="34" y1="-88" x2="24" y2="-62"/><line x1="64" y1="-69" x2="45" y2="-48"/></g>
    <g stroke="#0072bc" transform="rotate(225)"><line x1="0" y1="-94" x2="0" y2="-66"/><line x1="34" y1="-88" x2="24" y2="-62"/></g>
    <g stroke="#e83e8c" transform="rotate(270)"><line x1="0" y1="-94" x2="0" y2="-66"/><line x1="34" y1="-88" x2="24" y2="-62"/><line x1="64" y1="-69" x2="45" y2="-48"/></g>
    <g stroke="#00a3e0" transform="rotate(315)"><line x1="0" y1="-94" x2="0" y2="-66"/><line x1="34" y1="-88" x2="24" y2="-62"/></g>
  </g>
</g>
<text x="70" y="290" font-size="66" font-family="Arial, sans-serif" font-weight="800" fill="#414042">GENOPOLE</text>
</svg>